<svg width="40" height="26" viewBox="0 0 40 26" fill="none" xmlns="http://www.w3.org/2000/svg"><path fill-rule="evenodd" clip-rule="evenodd" d="M22.224 6.054a.84.84 0 0 1 1.017.356l7.84 13.161a.84.84 0 0 1-1.443.86L22.157 7.873l-1.583.594a.84.84 0 1 1-.59-1.573l2.24-.84z" fill="#000"/><path d="M26.771 6.961c2.537 0 7.218 2.856 7.218 4.676 0 0-3.482-.778-5.103-.981a715.58 715.58 0 0 1-3.847-.498c0-1.586-.17-3.197 1.732-3.197z" fill="url(#moto_svg__a)"/><path d="M21.709 22.64H18.19c-1.117 0-2.021-.89-2.137-2.047-.174-1.729-.8-3.53-1.813-4.568-1.014-1.038-2.788-1.813-3.964-2.286-1.175-.473-1.858-.706-3.04-1.129-1.182-.422-1.35-1.177-1.182-1.91.166-.735.885-1.255 1.95-.988l10.482 2.463s2.044-2.244 5.818-2.244C28.08 9.93 34 11.652 34 11.652v.399a2.362 2.362 0 0 1-2.137 2.343c-1.347.122-3.426.363-4.363.88-1.5.827-2.22 2.195-2.787 3.446-.284.628-.658 1.614-.96 2.44-.323.886-1.134 1.48-2.044 1.48z" fill="url(#moto_svg__b)"/><path fill-rule="evenodd" clip-rule="evenodd" d="M10.715 15.919a3.715 3.715 0 1 1 0 7.43 3.715 3.715 0 0 1 0-7.43z" fill="url(#moto_svg__c)"/><path d="M21.087 18.669c.46 0 .834.376.834.84 0 .43-.322.786-.737.834l-.098.006h-2.155a.837.837 0 0 1-.834-.84c0-.43.322-.786.737-.834l.097-.006h2.155z" fill="#fff"/><path fill-rule="evenodd" clip-rule="evenodd" d="M29.874 15.919a3.715 3.715 0 1 1 0 7.43 3.715 3.715 0 0 1 0-7.43z" fill="url(#moto_svg__d)"/><defs><linearGradient id="moto_svg__a" x1="29.167" y1="8.507" x2="27.758" y2="10.312" gradientUnits="userSpaceOnUse"><stop stop-color="#D0EAFF"/><stop offset="1" stop-color="#AAC1EA"/></linearGradient><linearGradient id="moto_svg__b" x1="6" y1="15.076" x2="31.57" y2="24.095" gradientUnits="userSpaceOnUse"><stop stop-color="#FF8F9D"/><stop offset="1" stop-color="#DB2700"/></linearGradient><linearGradient id="moto_svg__c" x1="10.715" y1="15.919" x2="10.715" y2="23.349" gradientUnits="userSpaceOnUse"><stop stop-color="#6F6868"/><stop offset="1"/></linearGradient><linearGradient id="moto_svg__d" x1="29.874" y1="15.919" x2="29.874" y2="23.349" gradientUnits="userSpaceOnUse"><stop stop-color="#6F6868"/><stop offset="1"/></linearGradient></defs></svg>