<svg width="40" height="26" viewBox="0 0 40 26" fill="none" xmlns="http://www.w3.org/2000/svg"><path fill-rule="evenodd" clip-rule="evenodd" d="M32.133 17v-2.8c0-4.667-2.334-9.333-7.467-9.333h-2.8v10.266c0 1.4.933 1.867 1.867 1.867h8.4z" fill="url(#spec_svg__a)"/><path fill-rule="evenodd" clip-rule="evenodd" d="M11.6 15.133h14V19.8H13.468a1.867 1.867 0 0 1-1.866-1.867v-2.8z" fill="#000"/><path fill-rule="evenodd" clip-rule="evenodd" d="M29.332 20.733c2.8 0 4.667-1.867 4.667-4.666 0-2.8-1.4-4.2-3.267-4.667-1.55-.388-5.258 0-6.066 0-.934 0-1.867-.467-1.867-1.867v9.333c0 1.4.933 1.867 1.867 1.867h4.666z" fill="url(#spec_svg__b)"/><path fill-rule="evenodd" clip-rule="evenodd" d="M7.867 3h13.066A1.867 1.867 0 0 1 22.8 4.867V17H7.867A1.867 1.867 0 0 1 6 15.133V4.867A1.867 1.867 0 0 1 7.867 3z" fill="url(#spec_svg__c)"/><path fill-rule="evenodd" clip-rule="evenodd" d="M12.066 17a3.267 3.267 0 1 1 0 6.533 3.267 3.267 0 0 1 0-6.533zm14.933 0a3.267 3.267 0 1 1 0 6.533 3.267 3.267 0 0 1 0-6.533z" fill="url(#spec_svg__d)"/><path d="M27.467 13.267a.934.934 0 0 1 .11 1.86l-.11.006H25.6a.934.934 0 0 1-.109-1.86l.11-.006h1.866z" fill="#fff"/><defs><linearGradient id="spec_svg__a" x1="26.717" y1="4.867" x2="23.899" y2="11.436" gradientUnits="userSpaceOnUse"><stop stop-color="#D0EAFF"/><stop offset="1" stop-color="#AAC1EA"/></linearGradient><linearGradient id="spec_svg__b" x1="22.799" y1="9.533" x2="33.999" y2="20.733" gradientUnits="userSpaceOnUse"><stop stop-color="#FF8F9D"/><stop offset="1" stop-color="#DB2700"/></linearGradient><linearGradient id="spec_svg__c" x1="6" y1="5.139" x2="20.696" y2="17.386" gradientUnits="userSpaceOnUse"><stop stop-color="#FF8F9D"/><stop offset="1" stop-color="#DB2700"/></linearGradient><linearGradient id="spec_svg__d" x1="19.532" y1="17" x2="19.532" y2="23.533" gradientUnits="userSpaceOnUse"><stop stop-color="#6F6868"/><stop offset="1"/></linearGradient></defs></svg>