<svg width="40" height="26" viewBox="0 0 40 26" fill="none" xmlns="http://www.w3.org/2000/svg"><path fill-rule="evenodd" clip-rule="evenodd" d="M26.964 10.429C26.964 8.107 24.643 3 18.143 3c-4.334 0-7.429.62-9.286 1.857C7.62 7.334 7 10.12 7 13.214c0 4.643 23.214-2.321 19.964-2.785z" fill="url(#auto_svg__a)"/><path fill-rule="evenodd" clip-rule="evenodd" d="M27.429 20.643c3.714 0 5.571-2.322 5.571-5.107 0-2.786-2.786-4.643-6.036-5.107C18 9.146 7 12.285 7 12.285c0 5.571 3.25 8.357 6.036 8.357h14.393z" fill="url(#auto_svg__b)"/><path fill-rule="evenodd" clip-rule="evenodd" d="M13.5 16a3.713 3.713 0 0 1 3.715 3.714A3.713 3.713 0 0 1 13.5 23.43a3.713 3.713 0 0 1-3.714-3.715A3.713 3.713 0 0 1 13.5 16zm13 0a3.713 3.713 0 0 1 3.715 3.714A3.713 3.713 0 0 1 26.5 23.43a3.713 3.713 0 0 1-3.714-3.715A3.713 3.713 0 0 1 26.5 16z" fill="url(#auto_svg__c)"/><path d="M21.857 12.286a.929.929 0 0 1 .109 1.85l-.109.007H20a.929.929 0 0 1-.109-1.85l.109-.007h1.857zm-6.5 0a.929.929 0 0 1 .109 1.85l-.109.007H13.5a.929.929 0 0 1-.109-1.85l.109-.007h1.857z" fill="#fff"/><defs><linearGradient id="auto_svg__a" x1="16.358" y1="6.902" x2="12.726" y2="11.073" gradientUnits="userSpaceOnUse"><stop stop-color="#D0EAFF"/><stop offset="1" stop-color="#AAC1EA"/></linearGradient><linearGradient id="auto_svg__b" x1="7" y1="14.52" x2="29.941" y2="23.804" gradientUnits="userSpaceOnUse"><stop stop-color="#FF8F9D"/><stop offset="1" stop-color="#DB2700"/></linearGradient><linearGradient id="auto_svg__c" x1="20" y1="16" x2="20" y2="23.429" gradientUnits="userSpaceOnUse"><stop stop-color="#6F6868"/><stop offset="1"/></linearGradient></defs></svg>