<svg width="40" height="26" viewBox="0 0 40 26" fill="none" xmlns="http://www.w3.org/2000/svg"><circle cx="19.226" cy="13.774" fill="url(#break_svg__a)" r="11.226"/><path d="M19.613 3.214V7.03c0 .996.726 1.798 1.642 2.19 1.088.464 2.098 1.311 2.637 3.066.317 1.034 1.178 1.876 2.26 1.876h3.898c1.08 0 1.995-.824 1.917-1.9-.292-4.015-2.593-9.679-10.15-11.01-1.184-.208-2.204.761-2.204 1.963z" fill="url(#break_svg__b)"/><circle cx=".819" cy=".819" r=".819" transform="scale(.99817 1.00182) rotate(45 6.24 29.026)" fill="#fff"/><circle cx=".819" cy=".819" r=".819" transform="scale(.99817 1.00182) rotate(45 1.868 39.579)" fill="#fff"/><circle cx="19.226" cy="13.774" fill="url(#break_svg__c)" r="6.581"/><circle cx="19.224" cy="13.774" fill="#fff" r="2.71"/><defs><linearGradient id="break_svg__a" x1="10.413" y1="7.681" x2="16.467" y2="19.249" gradientUnits="userSpaceOnUse"><stop stop-color="#D0EAFF"/><stop offset="1" stop-color="#AAC1EA"/></linearGradient><linearGradient id="break_svg__b" x1="12.182" y1="7.604" x2="25.389" y2="20.953" gradientUnits="userSpaceOnUse"><stop stop-color="#FF8F9D"/><stop offset="1" stop-color="#DB2700"/></linearGradient><linearGradient id="break_svg__c" x1="12.646" y1="7.193" x2="12.646" y2="19.572" gradientUnits="userSpaceOnUse"><stop stop-color="#6F6868"/><stop offset="1"/></linearGradient></defs></svg>