<svg stroke="currentColor" xmlns="http://www.w3.org/2000/svg" width="59" height="28" viewBox="0 0 59 28"><g fill="none" fill-rule="evenodd" stroke-linejoin="round"><path d="m19.512 24.501 20.792-.001"></path><path stroke-linecap="round" d="M26.5 17.5h3.2-3.2zm-13.952 6.913c-1.949 0-6.095-1.886-6.095-8.554-.026-1.301.659-1.753 1.528-1.806 5.584-.212 22.44.319 29.658 1.222m-11.221-3.028 1.23 2.245m-12.831-.452c1.091-2.198 1.272-2.812 7.646.216"></path><path stroke-linecap="round" d="M47.268 24.413s3.857 0 4.541-.585c.633-.584 3.793-6.481 0-7.119-1.79-.425-4.74-.903-10.851-1.753-.37-.053-.79-.16-1.16-.372l-8.691-4.78"></path><path stroke-linecap="round" d="M43.75 19.578c2.036 0 3.687 1.665 3.687 3.719s-1.651 3.719-3.688 3.719c-2.036 0-3.687-1.665-3.687-3.72 0-2.053 1.651-3.718 3.687-3.718zm-27.683 0c2.037 0 3.687 1.665 3.687 3.719s-1.65 3.719-3.687 3.719-3.688-1.665-3.688-3.72c0-2.053 1.651-3.718 3.688-3.718z"></path></g></svg>