<svg stroke="currentColor" xmlns="http://www.w3.org/2000/svg" width="59" height="28" viewBox="0 0 59 28"><g fill="none" fill-rule="evenodd" stroke-linejoin="round"><path stroke-linecap="round" d="M12.5 24.408s-6.562-.235-6.93-8.23c0 0-.422-2.39 1.527-2.816 0 0 9.923-3.145 12.952-3.57 5.808-.816 13.155.454 18.018 3.757a21.013 21.013 0 0 1 2.33 1.826"></path><path stroke-linecap="round" d="M47.709 24.413s3.375-.213 4.007-.585c.632-.372 3.293-5.073 1.133-6.64-1.08-.77-22.23-3.002-37.824-3.772"></path><path d="m40.935 24.501-21.66-.001"></path><path stroke-linecap="round" d="M21.5 16.5h3.2-3.2zm-5.58 3.344c1.965 0 3.557 1.605 3.557 3.586 0 1.98-1.592 3.586-3.556 3.586s-3.556-1.606-3.556-3.586c0-1.98 1.592-3.586 3.556-3.586zm28.368 0c1.964 0 3.556 1.605 3.556 3.586 0 1.98-1.592 3.586-3.556 3.586s-3.555-1.606-3.555-3.586c0-1.98 1.591-3.586 3.555-3.586z"></path></g></svg>