<svg stroke="currentColor" xmlns="http://www.w3.org/2000/svg" width="59" height="28" viewBox="0 0 59 28"><g fill="none" fill-rule="evenodd" stroke-linejoin="round"><path d="M24.5 24.5h11"></path><path stroke-linecap="round" d="M13.757 6.748c22.338-3.098 23.825 3.961 27.295 6.716M17.26 23.748c-3.583-.69-6.27-6.242-3.162-15.353"></path><path stroke-linecap="round" d="m42.522 23.715 1.494-.268c1.653-.41 3.181-6.795 2.114-7.914-4.27-4.503-22.977-1.338-25.53-2.293 0 0-1.335-.654-1.461-2.483m5.363-2.362c.415 1.542.712 3.321.83 4.962m-4.412 6.221c2.037 0 3.688 1.665 3.688 3.719s-1.651 3.719-3.688 3.719c-2.036 0-3.687-1.665-3.687-3.72 0-2.053 1.65-3.718 3.687-3.718z"></path><path stroke-linecap="round" d="M38.857 19.578c2.037 0 3.688 1.665 3.688 3.719s-1.651 3.719-3.688 3.719c-2.036 0-3.687-1.665-3.687-3.72 0-2.053 1.65-3.718 3.687-3.718zM25.5 15.5h2.8-2.8z"></path></g></svg>