<svg stroke="currentColor" xmlns="http://www.w3.org/2000/svg" width="59" height="28" viewBox="0 0 59 28"><g fill="none" fill-rule="evenodd" stroke-linejoin="round"><path d="m21.4 24.504 16-.004"></path><path stroke-linecap="round" d="M10.997 6.748c25.904-3.373 27.59 3.7 31.746 6.993M14.198 23.748c-3.583-.69-6.27-6.242-3.162-15.353"></path><path stroke-linecap="round" d="m44.717 23.748 1.745-.292c2.081-.398 4.004-6.614 2.66-7.703-5.372-4.383-28.92-1.301-32.133-2.231 0 0-1.607-.363-1.607-2.417M28.5 15.5h2.8-2.8zm-10 0h2.8-2.8zm10.842-7.105c.444 1.32.711 3.436.711 4.994M18.727 8.634a25.311 25.311 0 0 0-.21 3.002m-.659 7.942c2.037 0 3.688 1.665 3.688 3.719s-1.651 3.719-3.688 3.719-3.687-1.665-3.687-3.72c0-2.053 1.65-3.718 3.687-3.718z"></path><path stroke-linecap="round" d="M41.063 19.578c2.036 0 3.687 1.665 3.687 3.719s-1.65 3.719-3.687 3.719-3.688-1.665-3.688-3.72c0-2.053 1.651-3.718 3.688-3.718z"></path></g></svg>