<svg stroke="currentColor" xmlns="http://www.w3.org/2000/svg" width="59" height="28" viewBox="0 0 59 28"><g fill="none" fill-rule="evenodd" stroke-linejoin="round"><path stroke-linecap="round" d="M28.561 9.564c.29 1.249.685 2.975.711 3.692m-24.899.341c4.22-.255 6.55-3.515 12.694-5.215"></path><path stroke-linecap="round" d="M4.118 4.694c4.038 2.369 9.785-.295 15.618 3.072l1.568-.192c2.834-.346 6.274-.347 10.576.237 6.4.505 10.325 6.375 12.432 6.64m-30.71 9.503c-7.182 0-7.852-4.225-8.2-8.908"></path><path stroke-linecap="round" d="M17.894 10.277c-1.076.974-3.18 3.223-1.394 3.223 0 0 27.76-.137 37.03 2.28 3.188.823-.131 6.693-1.132 7.304-1 .611-3.926.87-3.926.87M29.5 15.5h2.8-2.8zm-11 0h2.8-2.8z"></path><path d="M41.026 24.497 21.05 24.5"></path><path stroke-linecap="round" d="M17.34 19.312c2.11 0 3.82 1.725 3.82 3.852s-1.71 3.852-3.82 3.852c-2.109 0-3.819-1.725-3.819-3.852s1.71-3.852 3.82-3.852zm27.393 0c2.11 0 3.82 1.725 3.82 3.852s-1.71 3.852-3.82 3.852c-2.109 0-3.819-1.725-3.819-3.852s1.71-3.852 3.82-3.852zM13.096 5.925l.788 1.758"></path></g></svg>