<svg stroke="currentColor" xmlns="http://www.w3.org/2000/svg" width="59" height="28" viewBox="0 0 59 28"><g fill="none" fill-rule="evenodd" stroke-linejoin="round"><path stroke-linecap="round" d="M12.12 23.456c-5.347.186-10.678-6.614-6.2-18.726m-.896-1.196C22.829 1.887 39.95.586 48.299 9.511c8.086 8.606 6.469 13.36 1.78 13.945"></path><path d="M42.03 23.5H20.195"></path><path stroke-linecap="round" d="M10.344 5.66s-2.686 6.427 1.107 6.374c3.793-.053 32.824-1.708 39.83 1.055M23.646 5.287c.105 1.063.342 2.63.368 4.224M36.42 5.287c.659 1.62 1.215 3.873 1.321 6.264M10.5 14.496l16.476.004m-10.811 4.281c2.255 0 4.083 1.844 4.083 4.117 0 2.274-1.828 4.118-4.083 4.118s-4.082-1.844-4.082-4.118c0-2.273 1.827-4.117 4.082-4.117zm29.869 0c2.255 0 4.083 1.844 4.083 4.117 0 2.274-1.828 4.118-4.083 4.118s-4.082-1.844-4.082-4.118c0-2.273 1.827-4.117 4.082-4.117zM37.5 14.5h2.8-2.8z"></path></g></svg>