<svg stroke="currentColor" xmlns="http://www.w3.org/2000/svg" width="59" height="28" viewBox="0 0 59 28"><g fill="none" fill-rule="evenodd" stroke-linejoin="round"><path stroke-linecap="round" d="M28.078 9.564c.29 1.249.685 2.975.71 3.692M4.557 14.372c1.185-.186 6.664-.584 6.664-.584s4.003-4.011 5.741-4.915c1.739-.903 8.534-1.514 14.434-1.062 6.4.505 10.489 6.284 12.596 6.55m-30.874 9.593c-7.059 0-7.718-3.606-8.06-7.59"></path><path stroke-linecap="round" d="M48.513 23.954s2.425-.152 3.768-.87c1.054-.557 4.32-6.48 1.133-7.304-7.866-2.074-27.065-2.445-37.532-2.186"></path><path d="M41.2 24.5H20.7"></path><path stroke-linecap="round" d="M16.855 19.312c2.11 0 3.82 1.725 3.82 3.852s-1.71 3.852-3.82 3.852-3.82-1.725-3.82-3.852 1.71-3.852 3.82-3.852zm27.92 0c2.109 0 3.819 1.725 3.819 3.852s-1.71 3.852-3.82 3.852c-2.109 0-3.819-1.725-3.819-3.852s1.71-3.852 3.82-3.852zm-25.047-9.217c-.59.41-1.515 1.583-1.813 2.365M28.5 15.5h2.8-2.8zm-12 0h2.8-2.8z"></path></g></svg>