<svg stroke="currentColor" xmlns="http://www.w3.org/2000/svg" width="59" height="28" viewBox="0 0 59 28"><g fill="none" fill-rule="evenodd" stroke-linejoin="round"><path d="M23.813 23.5h14.895"></path><path stroke-linecap="round" d="M9.294 6.881H6.502c-.58 0-1.001.638-1.001 1.435v6.162c0 1.116.632 2.072 1.422 2.072m8.106-12.113s-2.809 6.535.552 6.535c0 0 38.722-1.86 36.42 6.375-.875 3.134-1.382 5.206-2.256 5.419-1.013.265-2.25.371-2.25.371M24.728 4.119C25.667 6.8 26.31 9.408 26.32 10.8"></path><path stroke-linecap="round" d="M14.957 23.138c-4.847.478-9.272-6.163-5.216-17.054l.92-2.43M26.835 20.5h9.43-9.43zm-7.375-2.516c2.473 0 4.478 2.022 4.478 4.516s-2.005 4.516-4.478 4.516-4.477-2.022-4.477-4.516 2.004-4.516 4.477-4.516zm23.6 0c2.474 0 4.478 2.022 4.478 4.516s-2.004 4.516-4.477 4.516c-2.474 0-4.478-2.022-4.478-4.516s2.004-4.516 4.478-4.516zM9.776 2.276c23.544-1.925 27.656.437 32.038 9.48M26.5 13.5h2.8-2.8z"></path></g></svg>