<svg stroke="currentColor" xmlns="http://www.w3.org/2000/svg" width="59" height="28" viewBox="0 0 59 28"><g fill="none" fill-rule="evenodd" stroke-linejoin="round"><path d="M21.834 23.5h20.102"></path><path stroke-linecap="round" d="M7.286 6.978H4.499c-.578 0-.999.634-.999 1.426v6.124c0 1.109.631 2.059 1.42 2.059M13.389 4.55s-3.208 6.493.63 6.493c0 0 44.221-1.847 41.592 6.336-.999 3.115-1.577 5.174-2.576 5.385a20.12 20.12 0 0 1-2.307.37M29.989 13.5h2.8-2.8zm-12.619 0h2.8-2.8zm10.11-9.267c.947 2.692 1.614 5.305 1.614 6.677M16.91 4.76a35.994 35.994 0 0 0-.21 3.591"></path><path stroke-linecap="round" d="M13.065 23.134c-4.838.475-9.325-6.125-5.276-16.948l.84-2.217M24.851 20.5h14.67-14.67z"></path><path stroke-linecap="round" d="M17.49 18.012c2.468 0 4.47 2.01 4.47 4.488 0 2.478-2.002 4.488-4.47 4.488s-4.47-2.01-4.47-4.488c0-2.479 2.002-4.488 4.47-4.488zm28.814 0c2.469 0 4.47 2.01 4.47 4.488 0 2.478-2.001 4.488-4.47 4.488-2.468 0-4.47-2.01-4.47-4.488 0-2.479 2.002-4.488 4.47-4.488zM7.552 2.65c26.08-2.324 30.267-.354 34.815 8.99"></path></g></svg>