<svg stroke="currentColor" xmlns="http://www.w3.org/2000/svg" width="59" height="28" viewBox="0 0 59 28"><g fill="none" fill-rule="evenodd" stroke-linejoin="round"><path stroke-linecap="round" d="M42.011 14.302s-2.897-7.367-19.333-7.367C13.301 6.935 6.19 8.21 6.19 8.21m19.754.69c.474 1.7 1.08 3.958 1.133 4.914"></path><path stroke-linecap="round" d="M48.015 23.954s2.425-.152 3.768-.87c1.054-.557 4.32-6.48 1.132-7.304-9.271-2.444-32.476-2.046-40.377-1.514-.896.053-3.346.132-1.634-4.463m1.714 14.151C7.324 23.98 2.45 18.94 6.928 9.43m9.007.48c.105.902.264 2.124.264 2.602"></path><path d="m40.57 24.497-20.506.003"></path><path stroke-linecap="round" d="M16.357 19.312c2.109 0 3.819 1.725 3.819 3.852s-1.71 3.852-3.82 3.852c-2.109 0-3.819-1.725-3.819-3.852s1.71-3.852 3.82-3.852zm27.919 0c2.11 0 3.82 1.725 3.82 3.852s-1.71 3.852-3.82 3.852c-2.109 0-3.819-1.725-3.819-3.852s1.71-3.852 3.82-3.852zM27.5 16.5h2.8-2.8zm-12 0h2.8-2.8z"></path></g></svg>